<svg width="137" height="20" viewBox="0 0 137 20" fill="none" xmlns="http://www.w3.org/2000/svg">
<g clip-path="url(#clip0_109_38816)">
<path fill-rule="evenodd" clip-rule="evenodd" d="M32.9625 6.16554C31.5743 6.15246 30.2262 6.63107 29.1569 7.51664V6.29875H25.7446V19.7145H29.3282V11.1132C29.7134 10.6143 30.2045 10.207 30.766 9.92075C31.3276 9.63447 31.9456 9.4763 32.5756 9.45765C33.0652 9.43133 33.555 9.5047 34.0154 9.67331V6.25435C33.6675 6.19551 33.3153 6.16581 32.9625 6.16554Z" fill="white"/>
<path fill-rule="evenodd" clip-rule="evenodd" d="M1.7252 15.6232C2.74989 16.4884 4.05019 16.9587 5.39122 16.9489C6.35529 16.9489 7.10372 16.4795 7.10372 15.8135C7.10372 13.7964 0.627932 14.5449 0.627932 10.1998C0.627932 7.63082 3.10789 6.026 5.75275 6.026C7.35745 6.02729 8.9269 6.49685 10.2687 7.3771L8.58788 9.97779C7.85515 9.42168 6.96988 9.10295 6.05085 9.06438C5.0614 9.06438 4.23053 9.45131 4.23053 10.1427C4.23053 11.8871 10.7063 11.1957 10.7063 15.8516C10.7063 18.3888 8.16928 20 5.39122 20C3.45533 19.9812 1.57496 19.3507 0.019043 18.1985L1.7252 15.6232Z" fill="white"/>
<path fill-rule="evenodd" clip-rule="evenodd" d="M24.2161 12.883C24.2161 9.14684 21.5966 6.026 17.8735 6.026C13.9094 6.026 11.3723 9.28639 11.3723 13.0035C11.3723 17.209 14.3724 19.981 18.3492 19.981C19.3828 19.9948 20.4074 19.7867 21.3538 19.3709C22.3002 18.9551 23.1465 18.3412 23.8355 17.5706L21.8439 15.5534C21.4173 16.0252 20.8994 16.4056 20.3216 16.6716C19.7439 16.9376 19.1182 17.0838 18.4824 17.1012C17.591 17.128 16.7227 16.8155 16.0528 16.2268C15.3829 15.6381 14.9614 14.8171 14.8734 13.9296H24.1336C24.1929 13.5839 24.2205 13.2336 24.2161 12.883ZM15.0447 11.2781C15.1735 10.6138 15.5306 10.0154 16.0542 9.58679C16.5778 9.15814 17.2349 8.9262 17.9115 8.93117C18.5631 8.93119 19.1921 9.17004 19.6795 9.60252C20.1668 10.035 20.4788 10.6311 20.5564 11.2781H15.0447Z" fill="white"/>
<path fill-rule="evenodd" clip-rule="evenodd" d="M42.5525 14.4878L46.2185 6.29877H49.9352L43.7956 19.7146H41.3156L35.1697 6.29877H38.8864L42.5525 14.4878Z" fill="white"/>
<path fill-rule="evenodd" clip-rule="evenodd" d="M52.9481 1.15148e-05C53.3999 0.00999972 53.8387 0.153113 54.2096 0.41142C54.5804 0.669728 54.8668 1.03174 55.0328 1.4521C55.1988 1.87246 55.2371 2.33248 55.1429 2.77451C55.0486 3.21654 54.8261 3.62092 54.503 3.937C54.18 4.25308 53.7709 4.46679 53.3269 4.55135C52.883 4.63592 52.424 4.58758 52.0074 4.41239C51.5908 4.2372 51.2351 3.94296 50.985 3.56652C50.7349 3.19009 50.6014 2.7482 50.6013 2.29624C50.6012 1.99038 50.6623 1.68758 50.7808 1.40563C50.8994 1.12368 51.073 0.868254 51.2916 0.654352C51.5103 0.440451 51.7694 0.272384 52.0538 0.160018C52.3383 0.0476523 52.6423 -0.00674789 52.9481 1.15148e-05Z" fill="white"/>
<path d="M54.7366 6.29877H51.1531V19.7146H54.7366V6.29877Z" fill="white"/>
<path fill-rule="evenodd" clip-rule="evenodd" d="M69.5465 16.9806C68.868 17.9495 67.9575 18.7329 66.8983 19.2592C65.8391 19.7856 64.6649 20.038 63.483 19.9936C61.6326 19.9936 59.858 19.2585 58.5496 17.95C57.2412 16.6415 56.5061 14.8667 56.5061 13.0162C56.5061 11.1656 57.2412 9.39087 58.5496 8.08233C59.858 6.7738 61.6326 6.03868 63.483 6.03868C64.5617 6.03068 65.6282 6.26807 66.6018 6.73291C67.5753 7.19775 68.4304 7.87787 69.1025 8.72184L66.5655 10.961C66.2124 10.4716 65.7497 10.0716 65.2145 9.79297C64.6793 9.51432 64.0863 9.36473 63.483 9.35615C63.0024 9.35346 62.5261 9.4473 62.0825 9.63212C61.6388 9.81694 61.2368 10.089 60.9002 10.4321C60.5636 10.7752 60.2994 11.1824 60.1231 11.6295C59.9468 12.0767 59.8621 12.5547 59.874 13.0352C59.8578 13.5226 59.9425 14.0081 60.1228 14.4613C60.3031 14.9144 60.5751 15.3254 60.9217 15.6685C61.2683 16.0115 61.682 16.2792 62.137 16.4548C62.5919 16.6304 63.0782 16.7101 63.5654 16.6889C64.1981 16.6709 64.8171 16.4999 65.3693 16.1906C65.9216 15.8813 66.3908 15.4429 66.7367 14.9128L69.5465 16.9806Z" fill="white"/>
<path fill-rule="evenodd" clip-rule="evenodd" d="M82.5552 17.5833C81.8677 18.3541 81.0226 18.9682 80.0772 19.384C79.1317 19.7999 78.108 20.0078 77.0752 19.9937C73.0794 19.9937 70.0984 17.228 70.0984 13.0162C70.0984 9.28005 72.6354 6.0387 76.6059 6.0387C80.2973 6.0387 82.9104 9.15953 82.9104 12.8957C82.9137 13.24 82.8861 13.5839 82.828 13.9233H73.5488C73.6338 14.8119 74.0545 15.6347 74.725 16.224C75.3956 16.8133 76.2655 17.1247 77.1577 17.0948C77.7934 17.0767 78.4188 16.9302 78.9965 16.6643C79.5742 16.3983 80.0921 16.0183 80.5193 15.5471L82.5552 17.5833ZM79.2254 11.2782C79.1465 10.6317 78.8341 10.0364 78.347 9.60413C77.8599 9.1719 77.2317 8.93257 76.5805 8.93118C75.9039 8.92621 75.2468 9.15815 74.7232 9.5868C74.1996 10.0155 73.8425 10.6138 73.7137 11.2782H79.2254Z" fill="white"/>
<path fill-rule="evenodd" clip-rule="evenodd" d="M84.312 19.7146V6.29877H87.756V7.37711C88.8261 6.49299 90.1736 6.01457 91.5616 6.02602C92.4445 6.02268 93.3172 6.21424 94.1176 6.58703C94.9179 6.95983 95.6261 7.50467 96.1917 8.1827C97.0733 9.23566 97.568 10.5868 97.568 12.883V19.7146H93.9845V12.6102C93.9845 11.2782 93.68 10.5868 93.1853 10.073C92.9117 9.82367 92.5916 9.6309 92.2433 9.50572C91.8949 9.38053 91.5253 9.3254 91.1557 9.34349C90.525 9.36202 89.9063 9.52078 89.3446 9.80824C88.7829 10.0957 88.2922 10.5047 87.9083 11.0054V19.7146H84.312Z" fill="white"/>
<path fill-rule="evenodd" clip-rule="evenodd" d="M106.759 6.0387C105.188 6.0371 103.653 6.5069 102.353 7.38731C101.052 8.26771 100.046 9.5182 99.4636 10.977C98.8815 12.4357 98.7506 14.0356 99.0877 15.5696C99.4249 17.1036 100.215 18.5012 101.355 19.5814C101.623 19.8367 101.973 19.9879 102.343 20.0077C102.713 20.0275 103.078 19.9145 103.372 19.6892C104.337 18.9685 105.509 18.5791 106.714 18.5791C107.919 18.5791 109.091 18.9685 110.057 19.6892C110.353 19.9163 110.721 20.0291 111.094 20.007C111.467 19.9848 111.819 19.8293 112.086 19.5687C113.217 18.4922 114.002 17.1026 114.338 15.5779C114.675 14.0532 114.55 12.4626 113.978 11.0097C113.405 9.55673 112.413 8.30758 111.127 7.42204C109.841 6.53649 108.32 6.05483 106.759 6.0387ZM106.714 17.7989C105.938 17.8014 105.178 17.5733 104.532 17.1436C103.885 16.7138 103.381 16.1017 103.083 15.3849C102.784 14.6681 102.706 13.8788 102.856 13.1172C103.007 12.3556 103.381 11.656 103.93 11.107C104.479 10.558 105.178 10.1844 105.94 10.0335C106.701 9.88265 107.491 9.96135 108.207 10.2596C108.924 10.5579 109.536 11.0623 109.966 11.7089C110.396 12.3555 110.624 13.1151 110.621 13.8915C110.635 14.4085 110.544 14.9228 110.352 15.4032C110.161 15.8836 109.874 16.3199 109.508 16.6856C109.142 17.0513 108.706 17.3386 108.226 17.53C107.745 17.7214 107.231 17.8129 106.714 17.7989Z" fill="#62D84E"/>
<path fill-rule="evenodd" clip-rule="evenodd" d="M121.613 19.7146H118.949L113.627 6.29877H117.205L120.122 13.9677L122.983 6.29877H125.97L128.805 13.9677L131.748 6.29877H135.319L130.004 19.7146H127.334L124.473 12.0774L121.613 19.7146Z" fill="white"/>
</g>
<defs>
<clipPath id="clip0_109_38816">
<rect width="137" height="20" fill="white"/>
</clipPath>
</defs>
</svg>
